<svg width="2001" height="1445" fill="none" xmlns="http://www.w3.org/2000/svg"><g clip-path="url(#a)"><mask id="b" style="mask-type:luminance" maskUnits="userSpaceOnUse" x="0" y="0" width="2001" height="1445"><path d="M0 0h2001v1444.37H0V0Z" fill="#fff"/></mask><g mask="url(#b)"><path d="m2000.75 288.74-90.91-52.49-90.91-52.48-114.77-66.26L1500.75.07a.557.557 0 0 0-.25-.07c-.09 0-.17.02-.25.07L1000.5 288.6l-90.66-52.34-90.91-52.48-127.18-73.43L500.75.07a.553.553 0 0 0-.25-.07c-.09 0-.17.02-.25.07L.25 288.74c-.15.09-.25.25-.25.43v577.35c0 .18.1.34.25.43l500 288.68 90.91 52.48 90.91 52.48 90.91 52.48 74.54 43.03 16.37 9.45 35.7 20.61 100.66 58.11c.08.04.16.07.25.07s.17-.02.25-.07l116.67-67.36 19.69-11.37 65.37-37.74 25.54-14.74 44.96-25.96 45.94-26.53 59.07-34.11 31.83-18.38 90.91-52.49 500-288.67c.15-.09.25-.25.25-.43V289.17c0-.18-.1-.34-.25-.43h.02ZM410.09 106.34l43.95 25.38-15.4 8.89-28.55 16.49v-50.76Zm-1-52.49v50.75l-43.95-25.38 43.95-25.38v.01Zm-44.45 26.24 44.08 25.45.37.21v52.2c0 .18.1.34.25.43l90.16 52.05-44.45 25.67-90.41-52.2V80.08v.01ZM228.78 577.84l89.91-51.91 89.91 51.91-89.91 51.91-89.91-51.91Zm88.91 52.49-89.91 51.91-89.91-51.91 89.91-51.91 89.91 51.91Zm45.45-131.22-44.45 25.67-89.91-51.91 44.45-25.67 89.91 51.91Zm-88.91-52.49 44.45-25.67 89.91 51.91-44.45 25.67-89.91-51.91Zm45.45 78.73 44.45-25.67 89.91 51.91-44.45 25.67-89.91-51.91Zm45.45-26.24 44.45-25.67 89.91 51.91-44.45 25.67-89.91-51.91Zm-45.45-78.73 44.45-25.67 89.91 51.91-44.45 25.67-89.91-51.91Zm45.45-26.24 44.45-25.67 89.91 51.91-44.45 25.67-89.91-51.91Zm44.45-26.82-89.91-51.91 44.45-25.67 89.91 51.91-44.45 25.67Zm-44.45-78.15 25.44-14.69 19.01-10.98 89.91 51.91-44.45 25.67-89.91-51.91Zm45.45-26.24 44.45-25.67 44.95 25.95v51.33l-89.41-51.62.01.01Zm45.45-26.24 43.95-25.38v50.75l-43.95-25.38v.01Zm-91.41-51.62 89.41 51.62-15.75 9.09-28.7 16.57-44.95-25.95v-51.33h-.01Zm-45.45-79.31 44.45-25.67v103.24l-44.45-25.67v-51.91.01Zm0 53.06 28.23 16.3 16.22 9.36v52.2c0 .18.1.34.25.43l44.7 25.81-44.45 25.67-44.96-25.95V158.82h.01Zm0 104.97 43.95 25.38-43.95 25.38v-50.76Zm-1-157.46v50.75l-43.95-25.38 43.95-25.38v.01Zm-44.45 26.24 44.45 25.67v103.82l-44.45-25.67V132.57Zm0 104.97 11.66 6.73 32.79 18.93v52.2c0 .18.1.34.25.43l90.16 52.05-44.45 25.67-90.41-52.2V237.53v.01Zm0 104.97 89.41 51.62-44.45 25.67-44.95-25.95v-51.33l-.01-.01Zm-45.45-184.28 44.45-25.67V235.8l-44.45-25.67v-51.91.01Zm0 53.06 44.45 25.67v103.82l-44.45-25.67V211.29Zm0 104.97 44.45 25.67v52.2c0 .18.1.34.25.43l44.7 25.81-44.45 25.67-44.96-25.95V316.27l.01-.01Zm0 104.97 43.95 25.38-43.95 25.38v-50.76Zm-1-262.43v50.75l-43.95-25.38 43.95-25.38v.01Zm-44.45 26.24 44.45 25.67v103.82l-44.45-25.67V185.04Zm0 104.97 40.85 23.58 3.6 2.08v103.82l-44.45-25.67V290v.01Zm0 104.97 44.45 25.67v52.2c0 .18.1.34.25.43l90.16 52.05-89.91 51.91-44.96-25.96v-156.3h.01ZM137.37 210.7l44.45-25.67v103.24l-44.45-25.67v-51.91.01Zm0 53.06 44.45 25.67v103.82l-44.45-25.67V263.76Zm0 104.97 25 14.44 19.45 11.23v157.17c0 .18.1.34.25.43l44.71 25.81-89.41 51.62v-260.7Zm-1-157.46v50.75l-43.95-25.38 43.95-25.38v.01Zm-44.45 26.24 44.45 25.67V367l-44.45-25.67V237.51Zm0 104.97 44.45 25.67v262.14c0 .18.1.34.25.43l90.16 52.05-89.91 51.91-44.96-25.95V342.48h.01Zm-45.45-79.31 44.45-25.67v103.24l-44.45-25.67v-51.91.01Zm0 53.06 44.45 25.67v367.12c0 .18.1.34.25.43l44.71 25.81-89.41 51.62V316.23Zm-1-52.49v50.75L1.5 289.17l43.95-25.38.02-.05Zm454.54 890.54L1 866.23V290.04l44.45 25.67V787.8c0 .18.1.34.25.43l454.29 262.29v103.82l.02-.06Zm0-104.97L46.96 787.8l89.91-51.91L500 945.55v103.82l.01-.06Zm0-104.97L137.88 735.26l89.91-51.91 272.23 157.17v103.82h-.01Zm0-104.97L228.78 682.78l89.91-51.91 181.32 104.68v103.82Zm0-104.97L319.69 630.29l89.91-51.91 90.41 52.2V734.4Zm0-104.97-89.41-51.62 44.45-25.67L500 578.09v51.33l.01.01Zm0-52.49-43.95-25.38 43.95-25.38v50.76Zm0-52.49-89.41-51.62 44.45-25.67L500 473.11v51.33l.01.01Zm0-52.49-43.95-25.38 21.17-12.22 22.79-13.16v50.75l-.01.01Zm0-52.49-89.41-51.62 44.45-25.67L500 368.13v51.33l.01.01Zm0-52.49-43.95-25.38 27.23-15.72 16.73-9.66v50.75l-.01.01Zm0-157.46L410.6 157.9l44.45-25.67L500 158.18v51.33l.01.01Zm0-52.49-43.95-25.38 43.95-25.38v50.76Zm0-51.91-44.95 25.95-44.95-25.95V53.21L500 1.37v103.82l.01-.07Zm455.55 158.61 43.95 25.38-43.95 25.38v-50.76Zm0 51.91 44.45-25.66V393.8l-44.45 25.66V315.64Zm0 104.97 44.45-25.66v103.82l-44.45 25.67V420.61Zm0 104.97 44.45-25.67v103.82l-44.45 25.66V525.57v.01Zm0 104.97 44.45-25.66v103.82l-44.45 25.67V630.55Zm0 157.17v-52.2l44.45-25.67v103.82l-90.41 52.2-44.45-25.67 90.16-52.05c.15-.09.25-.25.25-.43Zm-90.41 367.4 89.91-51.91 44.45 25.67-89.91 51.91-44.46-25.67h.01Zm88.91 52.49-89.41 51.62v-51.33l44.96-25.96 44.45 25.67Zm-89.91-53.06-44.45-25.67 89.91-51.91 44.45 25.67-89.91 51.91Zm-1 .58-43.95 25.38v-50.75l43.95 25.38v-.01Zm2-104.97 89.91-51.91 44.45 25.67-89.91 51.91-44.45-25.67Zm-1-.58-44.45-25.67L909.61 972l44.45 25.67-89.91 51.91Zm-135.36-78.15 89.91-51.91 44.45 25.67-89.91 51.91-44.45-25.67Zm43.45 26.24-43.95 25.38V972.3l43.95 25.38v-.01Zm-134.36-183.7 89.91-51.91 44.46 25.67-89.91 51.91-44.46-25.67Zm43.46 26.24-43.96 25.38v-50.76l43.96 25.38Zm-134.36-183.7 89.91-51.91 44.46 25.67-89.91 51.91-44.46-25.67Zm43.46 26.24-43.96 25.38v-50.76l43.96 25.38Zm45.45-393.65-89.91 51.91-44.45-25.67 89.91-51.91 44.45 25.67Zm-88.91-52.49 89.41-51.62v51.33l-44.95 25.95-44.45-25.67-.01.01Zm89.91 53.06 44.46 25.67-89.91 51.91-44.45-25.67 89.91-51.91h-.01Zm1-.58 43.95-25.38v50.75l-43.95-25.38v.01Zm-2 104.97-89.91 51.91-44.45-25.67 89.91-51.91 44.45 25.67Zm1 .58 44.45 25.67-89.91 51.91-44.45-25.67 89.91-51.91Zm135.36 78.15-89.91 51.91-44.45-25.67 89.91-51.91 44.46 25.67h-.01Zm-43.45-26.24 43.95-25.38v50.75l-43.95-25.38v.01Zm-91.91 51.91-44.45-25.67 89.91-51.91 44.45 25.67-89.91 51.91Zm1-104.4 89.41-51.62v51.33l-44.95 25.95-44.45-25.67-.01.01Zm-2 104.97-77.94 45-11.97 6.91-44.45-25.67 89.91-51.91 44.45 25.67Zm-89.91 53.06 44.45 25.67-89.41 51.62v-51.33l44.95-25.95.01-.01Zm1-.58 89.91-51.91 44.45 25.67-89.91 51.91-44.45-25.67Zm135.36-25.67 44.45 25.66-89.91 51.91-22.48-12.98-21.98-12.69 89.91-51.91.01.01Zm180.82 104.4-89.91 51.91-44.46-25.67 89.91-51.91 44.46 25.67ZM819.7 604l43.96-25.38v50.76L819.7 604Zm-91.91 51.91-44.45-25.67 89.91-51.91L817.7 604l-89.91 51.91Zm19.64-93.63-18.64-10.76 89.41-51.62v51.33l-44.96 25.96-25.81-14.9v-.01Zm24.81 15.48-89.91 51.91L637.87 604l89.91-51.91 44.46 25.67Zm-89.91 53.06 11.86 6.85 32.59 18.82-89.91 51.91-44.45-25.67 89.91-51.91Zm-1 104.4-89.41 51.62v-51.33l44.96-25.96 44.46 25.67h-.01Zm-43.46-26.24 89.91-51.91 44.46 25.67-89.91 51.91-44.46-25.67Zm135.36-25.67 44.45 25.66-89.91 51.91-34.56-19.96-9.89-5.71 89.91-51.91v.01Zm180.82 104.4-89.91 51.91-44.45-25.67 89.91-51.91 44.45 25.67Zm-43.45-26.24 43.95-25.38v50.75l-43.95-25.38v.01Zm-91.91 51.91-44.45-25.67 89.91-51.91 44.45 25.67-89.91 51.91Zm1-104.4 89.41-51.62v51.33l-44.96 25.95-44.46-25.67.01.01Zm43.46 26.24-89.91 51.91-44.46-25.67 89.91-51.91 44.46 25.67Zm-89.91 53.06 44.45 25.67-89.91 51.91-44.45-25.67 89.91-51.91Zm-1 104.4-89.41 51.62v-51.33l44.96-25.96 44.45 25.67Zm-43.45-26.24 89.91-51.91 44.45 25.67-89.91 51.91-44.45-25.67Zm135.36-25.67 44.45 25.67-89.91 51.91-44.45-25.67 89.91-51.91Zm45.45 26.24 44.45 25.67-89.91 51.91-44.45-25.67 89.91-51.91Zm-45.45 78.73 44.45 25.67-89.91 51.91-44.45-25.67 89.91-51.91Zm-1 104.4-89.41 51.62v-51.33l44.96-25.96 44.45 25.67Zm2-104.97L943 900.22l12.06-6.96 44.45 25.67-89.91 51.91-44.46-25.67h.01Zm89.91-53.06-44.45-25.67 89.41-51.62v51.33l-44.95 25.95-.01.01Zm-44.95-654.63 44.45 25.67v51.91l-44.45 25.67V237.48Zm0 104.39 44.45-25.67v103.82l-44.45 25.67V341.87Zm0 104.97 44.45-25.67v103.82l-44.45 25.67V446.84Zm0 104.97 44.45-25.67v103.82l-44.45 25.67V551.81Zm-.25 157.6c.15-.09.25-.25.25-.43v-52.2l44.45-25.67v103.82l-44.95 25.95-44.45-25.67 44.71-25.81-.01.01Zm-45.2-498.19 43.95 25.38-43.95 25.38v-50.76Zm0 51.91 44.45-25.67v103.82l-44.45 25.67V263.13Zm0 104.97 44.45-25.67v103.82l-44.45 25.67V368.1Zm0 104.97 44.45-25.67v103.82l-44.45 25.67V473.07Zm0 157.17v-52.2l44.45-25.67v103.82l-90.41 52.2-44.45-25.66 90.16-52.05c.15-.09.25-.25.25-.43v-.01Zm-45.45-445.27 44.45 25.67v51.91l-44.45 25.67V184.97Zm0 104.39 44.45-25.67v103.82l-44.45 25.67V289.36Zm0 104.97 44.45-25.67v103.82l-44.45 25.67V394.33Zm-.25 157.6c.15-.09.25-.25.25-.43v-52.2l44.45-25.67v103.82L818.7 603.4l-44.45-25.67 44.71-25.81v.01Zm-45.2-393.21 43.95 25.38-43.95 25.38v-50.76Zm0 51.91 44.45-25.67v103.82l-44.45 25.67V210.63Zm0 104.97 44.45-25.67v103.82l-44.45 25.67V315.6Zm0 157.17v-52.2l43.63-25.19.83-.48v103.82l-90.41 52.2-44.45-25.66 90.16-52.05c.15-.09.25-.25.25-.43l-.01-.01Zm-45.45-340.3 44.45 25.67v51.91l-44.45 25.67V132.47Zm0 104.39 44.45-25.67v103.82l-44.45 25.67V236.86Zm0 157.17v-52.2l44.45-25.67v103.82l-44.96 25.95-42.39-24.48-2.06-1.19 44.7-25.81c.15-.09.25-.25.25-.43l.01.01Zm-45.45-287.81 10.36 5.98 6.08 3.51 27.51 15.89-43.95 25.38v-50.76Zm0 51.91 44.45-25.67v103.82l-44.45 25.67V158.13Zm0 157.17v-52.2l44.45-25.67v103.82l-90.41 52.2-44.45-25.67 90.16-52.05c.15-.09.25-.25.25-.43ZM637.41 79.98l4.61 2.66 39.85 23v51.91l-44.45 25.67V79.98h-.01Zm0 156.59v-52.2l44.45-25.67v103.82l-44.96 25.95-13.21-7.63-31.25-18.04 44.7-25.81c.15-.09.25-.25.25-.43l.02.01ZM591.96 53.73l43.95 25.38-43.95 25.38V53.73Zm0 104.11v-52.2l.37-.21 44.08-25.45V183.8L546 236l-44.45-25.67 90.16-52.05c.15-.09.25-.25.25-.43v-.01Zm-1-.87-28.55-16.49-15.4-8.89 43.95-25.38v50.76ZM501 1.37l76.97 44.44 12.94 7.47v51.91l-44.95 25.95-44.95-25.95V1.37H501Zm0 104.97 43.95 25.38L501 157.1v-50.76Zm0 51.91 44.95-25.95 44.45 25.67-89.41 51.62v-51.33l.01-.01Zm0 53.06 43.95 25.38-30.22 17.45-13.73 7.93v-50.76Zm0 51.91 44.95-25.95 44.45 25.67-89.41 51.62v-51.33l.01-.01Zm0 53.06 43.95 25.38-24.16 13.95L501 367.04v-50.76Zm0 51.91 44.95-25.95 44.45 25.67-89.41 51.62V368.2l.01-.01Zm0 53.06 43.95 25.38L501 472.01v-50.76Zm0 51.91 44.95-25.95 44.45 25.67-89.41 51.62v-51.33l.01-.01Zm0 53.06 43.95 25.38L501 576.98v-50.76Zm44.45 654.35-43.95-25.38 43.95-25.38v50.76Zm0-51.91L501 1154.33v-103.82l44.45-25.67v103.82Zm0-104.97L501 1049.36V945.54l44.45-25.67v103.82Zm0-104.97L501 944.39V840.57l44.45-25.67v103.82Zm0-104.97L501 839.42V735.6l44.45-25.67v103.82Zm0-157.17v52.2L501 734.45V630.63l90.41-52.2 44.45 25.66-90.16 52.05c-.15.09-.25.25-.25.43v.01Zm45.45 550.24-44.45-25.67v-51.91l44.45-25.67v103.25Zm0-104.39-44.45 25.67v-103.82l44.45-25.67v103.82Zm0-104.97-44.45 25.67V919.31l44.45-25.67v103.82Zm0-104.97-44.45 25.67V814.34l44.45-25.67v103.82Zm.25-157.6c-.15.09-.25.25-.25.43v52.2l-44.45 25.67V709.37l44.96-25.96 44.45 25.67-44.71 25.81Zm45.2 498.19-43.95-25.38 43.95-25.38v50.76Zm0-51.91-44.45 25.67v-103.82l44.45-25.67v103.82Zm0-104.97-44.45 25.67V998.05l44.45-25.67v103.82Zm0-104.97L591.9 996.9V893.08l44.45-25.67v103.82Zm0-157.17v52.2l-44.45 25.67V788.11l90.41-52.2 44.45 25.67-90.16 52.05c-.15.09-.25.25-.25.43Zm45.45 445.27-44.45-25.67v-51.91l44.45-25.67v103.25Zm0-104.39-44.45 25.67v-103.82l44.45-25.67v103.82Zm0-104.97-44.45 25.67V971.82l44.45-25.67v103.82Zm.25-157.6c-.15.09-.25.25-.25.43V945l-44.45 25.67V866.85l44.96-25.95 44.46 25.67-44.71 25.81-.01-.01Zm45.2 393.21-43.95-25.38 43.95-25.38v50.76Zm0-51.91-44.45 25.67v-103.82l44.45-25.67v103.82Zm0-104.97-44.45 25.67v-103.82l44.45-25.67v103.82Zm0-157.17v52.2l-44.45 25.67V945.58l90.41-52.2 44.45 25.67-90.16 52.05c-.15.09-.25.25-.25.43Zm45.45 340.29-44.45-25.67v-51.91l44.45-25.67v103.25Zm0-104.39-44.45 25.67v-103.82l44.45-25.67v103.82Zm.25-157.6c-.15.09-.25.25-.25.43v52.2l-44.45 25.67v-103.82l44.96-25.95 44.45 25.67-44.71 25.81v-.01Zm45.2 288.24-7.77-4.49-36.18-20.89 43.95-25.38v50.76Zm0-51.91-44.45 25.67v-103.82l44.45-25.67v103.82Zm0-157.17v52.2l-44.45 25.67v-103.82l90.41-52.2 44.45 25.67-90.16 52.05c-.15.09-.25.25-.25.43Zm45.45 235.32-17.88-10.32-26.57-15.34v-51.91l44.45-25.67v103.24Zm.25-157.02c-.15.09-.25.25-.25.43v52.2l-44.45 25.67v-103.82l44.95-25.95 44.46 25.67-44.71 25.81v-.01Zm45.2 183.27-43.95-25.38 43.95-25.38v50.76Zm0-104.11v52.2l-44.45 25.67V1260.5l90.41-52.2 44.45 25.67-90.16 52.05c-.15.09-.25.25-.25.43Zm1 .87L954 1312.7l-43.95 25.38v-50.76Zm89.91 155.73-89.91-51.91v-51.91l44.95-25.95 44.95 25.95v103.82h.01Zm0-104.97-43.95-25.38 43.95-25.38v50.76Zm0-51.91-44.95 25.95-44.45-25.67 89.41-51.62v51.33l-.01.01Zm0-53.06-43.95-25.38 43.95-25.38v50.76Zm0-51.91-44.95 25.95-44.45-25.67 89.41-51.62v51.33l-.01.01Zm0-53.06-43.95-25.38 43.95-25.38v50.76Zm0-51.91-44.95 25.95-44.45-25.67 89.41-51.62v51.33l-.01.01Zm0-53.06-43.95-25.38 43.95-25.38v50.76Zm0-51.91-44.95 25.95-44.45-25.67 89.41-51.62v51.33l-.01.01Zm0-53.06-43.95-25.38 43.95-25.38v50.76Zm410.13-811.86 43.95 25.38-43.95 25.38v-50.76Zm-1-52.49v50.75l-43.95-25.38 43.95-25.38v.01Zm-44.45 26.24 43.67 25.21.79.45v52.2c0 .18.1.34.25.43l90.16 52.05-44.45 25.67-90.41-52.2V80.08l-.01.01Zm0 104.97 89.41 51.62-44.45 25.67-44.95-25.95v-51.33l-.01-.01Zm-317.68 917.64 44.45-25.67 89.91 51.91-44.45 25.67-89.91-51.91Zm88.91 52.49-44.46 25.67-89.91-51.91 44.45-25.67 89.91 51.91h.01Zm-44.46-79.31-89.91-51.91 44.46-25.67 89.91 51.91-44.46 25.67Zm-44.45-78.15 44.45-25.67 89.91 51.91-44.45 25.67-89.91-51.91Zm88.91-52.49-44.45 25.67-89.91-51.91 44.45-25.67 89.91 51.91Zm-88.91-52.49 44.45-25.67 89.91 51.91-44.45 25.67-89.91-51.91Zm45.45 78.73 44.45-25.67 89.91 51.91-44.45 25.67-89.91-51.91Zm45.46-26.24 44.45-25.67 89.91 51.91-44.45 25.67-89.91-51.91Zm44.45-26.82-89.91-51.91 44.45-25.67 89.91 51.91-44.45 25.67Zm44.45-130.64-44.45 25.67-89.91-51.91 44.45-25.67 89.91 51.91Zm-88.91-52.49 44.45-25.67 89.91 51.91-44.45 25.67-89.91-51.91Zm43.45 78.73-44.45 25.67-89.91-51.91 44.45-25.67 89.91 51.91Zm-43.45 26.24 44.45-25.67 89.91 51.91-44.45 25.67-89.91-51.91Zm45.45-26.24 44.45-25.67 89.91 51.91-44.45 25.67-89.91-51.91Zm45.45-26.24 44.45-25.67 89.91 51.91-44.46 25.67-89.91-51.91h.01Zm44.45-26.82-89.91-51.91 44.45-25.67 89.91 51.91-44.45 25.67Zm44.46-130.64-44.45 25.67-89.91-51.91 44.45-25.67 89.91 51.91Zm-88.91-52.49 44.45-25.67 89.91 51.91-44.46 25.67-89.91-51.91h.01Zm43.45 78.73-44.45 25.67-89.91-51.91 44.46-25.67 89.91 51.91h-.01Zm-43.45 26.24 44.45-25.67 89.91 51.91-44.45 25.67-89.91-51.91Zm45.46-26.24 44.45-25.67 89.91 51.91-44.45 25.67-89.91-51.91Zm45.45-26.24 44.46-25.67 89.91 51.91-44.46 25.67-89.91-51.91Zm-45.45-78.73 44.45-25.67 89.91 51.91-44.45 25.67-89.91-51.91Zm134.36-78.73-44.45 25.67-89.91-51.91 44.45-25.67 89.91 51.91Zm-88.91-52.49 44.45-25.67 89.91 51.91-44.45 25.67-89.91-51.91Zm43.45 78.73-44.45 25.67-89.91-51.91 44.45-25.67 89.91 51.91Zm-43.45 26.24 44.45-25.67 89.91 51.91-44.45 25.67-89.91-51.91Zm45.45-26.24 44.45-25.67 89.91 51.91-44.45 25.67-89.91-51.91Zm45.45-26.24 44.45-25.67 44.95 25.95v51.33l-89.41-51.62.01.01Zm-45.45-78.73 44.45-25.67 89.91 51.91-44.45 25.67-89.91-51.91Zm-45.45-78.73 44.45-25.67 89.91 51.91-44.45 25.67-89.91-51.91Zm45.46-26.24 44.45-25.67 89.91 51.91-44.45 25.67-89.91-51.91Zm-45.96-183.41 44.45-25.67v103.24l-44.45-25.67v-51.91.01Zm0 53.06 27.82 16.06 16.64 9.6v52.2c0 .18.1.34.25.43l44.7 25.81-44.45 25.67-44.95-25.95V158.81h-.01Zm0 104.97 43.95 25.38-43.95 25.38v-50.76Zm-1-157.46v50.75l-43.95-25.38 43.95-25.38v.01Zm-44.45 26.24 44.45 25.67v103.82l-44.45-25.67V132.56Zm0 104.97 11.24 6.49 33.21 19.17v52.2c0 .18.1.34.25.43l90.16 52.05-44.45 25.67-90.41-52.2V237.52v.01Zm0 104.97 89.41 51.62-44.45 25.67-44.95-25.95v-51.33l-.01-.01Zm-45.45-184.28 44.45-25.67v103.24l-44.45-25.67v-51.91.01Zm0 53.06 44.45 25.67v103.82l-44.45-25.67V211.28Zm0 104.97 44.45 25.67v52.2c0 .18.1.34.25.43l44.7 25.81-44.45 25.67-44.96-25.95V316.26l.01-.01Zm0 104.97 43.95 25.38-43.95 25.38v-50.76Zm-1-262.43v50.75l-43.95-25.38 43.95-25.38v.01Zm-44.45 26.24 44.45 25.67v103.82l-44.45-25.67V185.03Zm0 104.97 40.85 23.58 3.6 2.08v103.82l-44.45-25.67V289.99v.01Zm0 104.97 44.45 25.67v52.2c0 .18.1.34.25.43l90.16 52.05-44.45 25.67-90.41-52.2V394.97Zm0 104.97 89.41 51.62-44.45 25.67-44.96-25.96v-51.33Zm-45.45-289.25 44.45-25.67v103.24l-44.45-25.67v-51.91.01Zm0 53.06 44.45 25.67v103.82l-44.45-25.67V263.75Zm0 104.97 25 14.44 19.45 11.23v103.82l-44.45-25.67V368.72Zm0 104.97 44.45 25.67v52.2c0 .18.1.34.25.43l44.71 25.81-44.45 25.67-44.96-25.96V473.69Zm0 104.97 43.96 25.38-43.96 25.38v-50.76Zm-1-367.4v50.75l-43.95-25.38 43.95-25.38v.01Zm-44.45 26.24 44.45 25.67v103.82l-44.45-25.67V237.5Zm0 104.97 44.45 25.67v103.82l-44.45-25.67V342.47Zm0 104.97 44.45 25.67v103.82l-44.45-25.67V447.44Zm0 104.97 44.45 25.67v52.2c0 .18.1.34.25.43l90.16 52.05-44.45 25.67-90.41-52.2V552.41Zm0 104.97 89.41 51.62-44.45 25.67-44.95-25.95v-51.33l-.01-.01Zm-45.45-394.22 44.45-25.67v103.24l-44.45-25.67v-51.91.01Zm0 53.06 44.45 25.67v103.82l-44.45-25.67V316.22Zm0 104.97 44.45 25.67v103.82l-44.45-25.67V421.19Zm0 104.97 44.45 25.67v103.82l-44.45-25.67V526.16Zm0 104.97 44.45 25.67V709c0 .18.1.34.25.43l44.7 25.81-44.45 25.67-44.96-25.96V631.13h.01Zm0 104.97 43.96 25.38-43.96 25.38V736.1Zm-1-472.38v50.75l-43.95-25.38 43.95-25.38v.01Zm-44.45 26.24 44.45 25.66v103.82l-44.45-25.66V289.96Zm0 104.97 44.45 25.66v103.82l-44.45-25.67V394.92v.01Zm0 183.12V499.9l44.45 25.67v103.82l-44.45-25.66v-25.68Zm0 26.82 44.45 25.66v103.82l-44.45-25.67V604.86v.01Zm0 104.97 44.45 25.67v52.2c0 .18.1.34.25.43l90.16 52.05-44.45 25.67-90.41-52.2V709.84Zm0 104.97 89.41 51.62-44.45 25.67-44.95-25.95v-51.33l-.01-.01Zm0 52.49 43.95 25.38-43.95 25.38V867.3Zm0 52.49 89.41 51.62-44.45 25.67-44.95-25.95V919.8l-.01-.01Zm0 52.49 43.95 25.38-43.95 25.38v-50.76Zm0 52.49 89.41 51.62-44.45 25.67-44.95-25.95v-51.33l-.01-.01Zm0 52.49 43.95 25.38-43.95 25.38v-50.76Zm0 52.49 89.41 51.62-44.45 25.67-44.95-25.95v-51.33l-.01-.01Zm0 52.49 43.95 25.38-43.95 25.38v-50.76Zm0 52.49 89.41 51.62-44.45 25.67-44.95-25.95v-51.33l-.01-.01Zm0 52.49 43.95 25.38-43.95 25.38v-50.76Zm89.91 103.82-89.91 51.91v-103.82l44.95-25.95 44.95 25.95v51.91h.01Zm0-53.06-43.95-25.38 43.95-25.38v50.76Zm1 52.49v-50.75l43.95 25.38-43.95 25.38v-.01Zm44.45-26.24-44.45-25.67v-52.2c0-.18-.1-.34-.25-.43l-90.16-52.05 44.45-25.67 90.41 52.2v103.82Zm0-104.97-89.41-51.62 44.45-25.67 44.95 25.96v51.33h.01Zm45.45 79.31-44.45 25.67V1261l44.45 25.67v51.91-.01Zm0-53.06-44.45-25.67v-52.2c0-.18-.1-.34-.25-.43l-44.71-25.81 44.46-25.67 44.95 25.95v103.83Zm0-104.97-43.95-25.38 43.95-25.38v50.76Zm1 157.46v-50.75l43.95 25.38-43.95 25.38v-.01Zm44.45-26.24-44.45-25.67v-103.82l44.45 25.67v103.82Zm0-104.97-44.45-25.67v-52.2c0-.18-.1-.34-.25-.43l-90.16-52.05 44.45-25.67 90.41 52.2v103.82Zm0-104.97-89.41-51.62 44.45-25.67 44.96 25.96v51.33Zm45.45 184.28-44.45 25.67v-103.24l44.45 25.67v51.91-.01Zm0-53.06-44.45-25.67v-103.82l44.45 25.67v103.82Zm0-104.97-44.45-25.67v-52.2c0-.18-.1-.34-.25-.43l-44.71-25.81 44.45-25.67 44.95 25.95v103.82l.01.01Zm0-104.97-43.95-25.38 43.95-25.38v50.76Zm1 262.43v-50.75l43.95 25.38-43.95 25.38v-.01Zm44.45-26.24-44.45-25.67V1129.8l44.45 25.67v103.82Zm0-104.97-44.45-25.67v-103.82l44.45 25.67v103.82Zm0-104.97-44.45-25.67v-52.2c0-.18-.1-.34-.25-.43L1183.32 919l44.45-25.67 90.41 52.2v103.82Zm0-104.97-89.41-51.62 44.45-25.67 44.96 25.96v51.33Zm45.45 289.25-44.45 25.67v-103.24l44.45 25.67v51.91-.01Zm0-53.06-44.45-25.67v-103.82l44.45 25.67v103.82Zm0-104.97-44.45-25.67V946.11l44.45 25.67v103.82Zm0-104.97-44.45-25.67v-52.2c0-.18-.1-.34-.25-.43l-44.71-25.81 44.45-25.67 44.96 25.96v103.82Zm0-104.97-43.96-25.38 43.96-25.38v50.76Zm1 367.4v-50.75l43.95 25.38-43.95 25.38v-.01Zm44.45-26.24-44.45-25.67v-103.82l44.45 25.67v103.82Zm0-104.97-44.45-25.67V972.36l44.45 25.67v103.82Zm0-104.97-44.45-25.67V867.39l44.45 25.67v103.82Zm0-104.97-44.45-25.67v-52.2c0-.18-.1-.34-.25-.43l-90.16-52.05 44.45-25.67 90.41 52.2v103.82Zm0-104.97-89.41-51.62 44.45-25.67 44.96 25.96v51.33Zm45.45 394.22-44.45 25.67v-103.24l44.45 25.67v51.91-.01Zm0-53.06-44.45-25.67V998.61l44.45 25.67v103.82Zm0-104.97-44.45-25.67V893.64l44.45 25.67v103.82Zm0-104.97-44.45-25.67V788.67l44.45 25.67v103.82Zm0-104.97-44.45-25.67v-52.2c0-.18-.1-.34-.25-.43l-44.71-25.81 44.45-25.67 44.96 25.96v103.82Zm0-104.97-43.96-25.38 43.96-25.38v50.76Zm1 472.38v-50.75l43.95 25.38-43.95 25.38v-.01Zm44.45-26.24-44.45-25.66v-103.82l44.45 25.66v103.82Zm0-104.97-44.45-25.66V919.91l44.45 25.67v103.82-.01Zm-44.45-130.64V814.93l44.45 25.66v103.82l-44.45-25.66Zm44.45-79.31-44.45-25.66V709.96l44.45 25.67v103.82-.01Zm0-176.93v71.96l-44.45-25.67v-52.2c0-.18-.1-.34-.25-.43l-90.16-52.05 44.45-25.67 90.41 52.2v31.86Zm0-33.02-89.41-51.62 44.45-25.67 44.95 25.95v51.33l.01.01Zm0-52.49-43.95-25.38 36.21-20.9 7.75-4.47V577h-.01Zm0-104.97-43.95-25.38 20.91-12.07 23.04-13.3v50.75Zm0-52.49-89.41-51.62 44.45-25.67 44.95 25.95v51.33l.01.01Zm0-52.49-43.95-25.38 43.95-25.38v50.76Zm0-52.49-89.41-51.62 44.45-25.67 44.95 25.95v51.33l.01.01Zm0-52.49-43.95-25.38 43.95-25.38v50.76Zm0-52.49-89.41-51.62 44.45-25.67 44.95 25.95v51.33l.01.01Zm0-52.49-43.95-25.38 43.95-25.38v50.76Zm0-51.91-44.95 25.95-44.95-25.95V53.27L1500 1.37v103.82l-.02-.01Zm455.55 158.61 43.95 25.38-43.95 25.38v-50.76Zm-45.45-26.24 44.45 25.67v51.91l-44.45 25.67V237.55Zm-.25 471.94c.15-.09.25-.25.25-.43V341.94l44.45-25.67v470.65l-89.41-51.62 44.71-25.81Zm-273.98-420.32-89.91 51.91-44.45-25.67 89.91-51.91 44.45 25.67Zm-88.91-52.49 89.41-51.62v51.33l-44.95 25.95-44.45-25.67-.01.01Zm89.91 53.06 44.45 25.67-89.91 51.91-44.45-25.67 89.91-51.91Zm1-.58 43.95-25.38v50.75l-43.95-25.38v.01Zm-2 104.97-89.91 51.91-44.45-25.67 89.91-51.91 44.45 25.67Zm1 .58 44.45 25.67-89.91 51.91-44.45-25.67 89.91-51.91Zm135.36 78.15-89.91 51.91-44.45-25.67 89.91-51.91 44.45 25.67Zm-43.45-26.24 43.95-25.38v50.75l-43.95-25.38v.01Zm-46.45 183.12-67.93-39.22-21.98-12.69 89.91-51.91 89.91 51.91-89.91 51.91Zm90.91-51.33 89.91 51.91-89.91 51.91-89.91-51.91 89.91-51.91Zm-181.82-1.15-44.46-25.67 89.91-51.91 44.45 25.67-89.91 51.91h.01Zm45.45-78.73-44.45-25.67 89.91-51.91 44.45 25.67-89.91 51.91Zm1-104.4 89.41-51.62v51.33l-44.95 25.95-44.45-25.67-.01.01Zm-2 104.97-89.91 51.91-44.45-25.67 89.91-51.91 44.45 25.67Zm-45.45 78.73-89.41 51.62v-51.33l44.95-25.95 44.46 25.67v-.01Zm1 .58 89.91 51.91-180.32 104.11V630.61l90.41-52.2Zm90.91 52.49 11.86 6.85 78.05 45.06-271.23 156.59V735.58l181.32-104.68Zm90.91 52.49 89.91 51.91-362.14 209.08V840.56l272.23-157.17Zm90.91 52.49 89.91 51.91L1501 1049.36V945.54l363.14-209.66h-.01Zm.5-524.57 43.95 25.38-43.95 25.38v-50.76Zm0 51.91 44.45-25.67v103.82l-44.45 25.67V263.22Zm0 367.12V368.2l44.45-25.67v366.25l-44.96 25.95-89.91-51.91 90.16-52.05c.15-.09.25-.25.25-.43h.01Zm-45.45-445.27 44.45 25.67v51.91l-44.45 25.67V185.07Zm0 104.39 44.45-25.67v103.82l-44.45 25.67V289.46Zm-.25 262.58c.15-.09.25-.25.25-.43V394.44l44.45-25.67v260.7l-89.41-51.62 44.71-25.81Zm-45.2-393.21 43.95 25.38-43.95 25.38v-50.76Zm0 51.91 44.45-25.67v103.82l-44.45 25.67V210.74Zm0 104.97 44.45-25.67v103.82l-44.45 25.67V315.71Zm0 157.17v-52.2l44.45-25.67v156.3l-44.96 25.96-25.81-14.9-64.09-37.01 90.16-52.05c.15-.09.25-.25.25-.43Zm-45.45-340.3 44.45 25.67v51.91l-44.45 25.67V132.58Zm0 104.39 44.45-25.67v103.82l-44.45 25.67V236.97Zm0 157.17v-52.2l44.45-25.67v103.82l-44.96 25.95-42.39-24.48-2.06-1.19 44.7-25.81c.15-.09.25-.25.25-.43l.01.01Zm-45.45-287.81 5.07 2.93 38.88 22.45-43.95 25.38v-50.76Zm0 51.91 44.45-25.67v103.82l-44.45 25.67V158.24Zm0 157.17v-52.2l44.45-25.67v103.82l-90.41 52.2-44.45-25.67 90.16-52.05c.15-.09.25-.25.25-.43Zm-45.45-235.32 44.45 25.67v51.91l-44.45 25.67V80.09Zm0 156.59v-52.2l44.45-25.67v103.82l-44.95 25.95-12.78-7.38-31.67-18.28 44.7-25.81c.15-.09.25-.25.25-.43Zm-45.45-182.84 29.09 16.79 14.87 8.58-43.95 25.38V53.84h-.01Zm0 104.11v-52.2l44.45-25.67V183.9l-90.41 52.2-44.45-25.67 90.16-52.05c.15-.09.25-.25.25-.43Zm-1-.87-28.12-16.24-15.83-9.14 43.95-25.38v50.76ZM1501 1.37l70.25 40.56 19.66 11.35v51.91l-44.95 25.95-44.95-25.95V1.37h-.01Zm0 104.97 43.95 25.38L1501 157.1v-50.76Zm0 51.91 44.95-25.95 44.45 25.67-89.41 51.62v-51.33l.01-.01Zm0 53.06 43.95 25.38-43.95 25.38v-50.76Zm0 51.91 44.95-25.95 44.45 25.67-89.41 51.62v-51.33l.01-.01Zm0 53.06 43.95 25.38-24.16 13.95-19.79 11.43v-50.76Zm0 51.91 44.95-25.95 44.45 25.67-89.41 51.62V368.2l.01-.01Zm0 53.06 43.95 25.38-18.55 10.71-25.4 14.67v-50.76Zm0 51.91 44.95-25.95 44.45 25.67-89.41 51.62v-51.33l.01-.01Zm0 53.06 43.95 25.38-12.94 7.47-31.02 17.91v-50.75l.01-.01Zm499 340.01-499 288.1v-103.82l454.29-262.29c.15-.09.25-.25.25-.43V315.7l44.45-25.67v576.19l.01.01Z" fill="#CFDBFF"/></g></g><defs><clipPath id="a"><path fill="#fff" d="M0 0h2001v1445H0z"/></clipPath></defs></svg>